<svg width="219" height="94" viewBox="0 0 219 94" fill="none" xmlns="http://www.w3.org/2000/svg">
<path d="M61.7598 86.3238V24.2888L5.31704 31.1816V77.4617L44.6459 82.221V86.9803L0.709473 81.5645V27.0788L66.3673 19.0372V86.9803L61.7598 86.3238Z" fill="#84B140"/>
<path d="M40.0383 86.3238V13.2932L148.152 0V89.2779L143.544 89.7702V5.25164L44.6459 17.2319V86.9803L40.0383 86.3238Z" fill="#B0C0C9"/>
<path d="M114.418 88.1291V12.4727L177.278 20.186V86.1597L172.671 85.6674V24.2889L119.025 17.7243V93.3807L61.7598 86.3239V81.7287L114.418 88.1291Z" fill="#F05125"/>
<path d="M218.746 91.2472V19.0372L153.911 27.0788V83.8621L143.544 85.175V89.7702L158.519 87.9649V31.1816L214.139 24.2888V85.9956L172.671 81.0722V85.6673L218.746 91.2472Z" fill="#991E21"/>
</svg>
