<svg width="255" height="96" viewBox="0 0 255 96" fill="none" xmlns="http://www.w3.org/2000/svg">
<path d="M73.6515 1.12246C73.6515 0.903844 73.8707 0.685222 73.8707 0.685222C73.8707 0.46661 74.0899 0.466614 74.0899 0.466614H74.3091H74.7475H75.8435C76.0627 0.466614 76.2819 0.466614 76.5011 0.466614C76.7203 0.466614 76.7203 0.46661 76.9395 0.685222L77.1587 0.903847C77.1587 1.12246 77.1587 1.12245 77.3779 1.55967L80.6659 21.8906C80.6659 22.1092 80.6659 22.1092 80.6659 22.3278V22.5464C80.6659 22.765 80.6659 22.9836 80.4467 22.9836C80.2275 22.9836 80.0083 23.2023 79.5699 23.2023H77.3779C76.9395 23.2023 76.5011 23.2023 76.5011 22.9836C76.2819 22.9836 76.2819 22.5464 76.2819 22.1092L74.5283 9.4297L68.829 22.5464L68.6098 22.765C68.3906 23.2023 68.1714 23.4209 67.733 23.4209C67.5138 23.4209 67.2946 23.4209 67.0754 23.4209C66.8562 23.4209 66.8562 23.2023 66.637 22.9836C66.637 22.9836 66.637 22.9836 66.637 22.765C66.637 22.765 66.637 22.765 66.637 22.5464L60.9378 9.4297L58.965 22.1092V22.3278C58.965 22.3278 58.965 22.3278 58.965 22.5464C58.965 22.765 58.7458 22.9836 58.7458 23.2023C58.5266 23.2023 58.3074 23.4209 57.869 23.4209H55.8962C55.4578 23.4209 55.2386 23.4209 55.0194 23.2023C54.8002 23.2023 54.8002 22.9836 54.8002 22.765V22.5464C54.8002 22.5464 54.8002 22.3278 54.8002 22.1092L58.5266 1.77828C58.5266 1.55967 58.5266 1.34107 58.7458 1.12246C58.7458 0.903844 58.7458 0.903847 58.965 0.903847C58.965 0.903847 59.1842 0.903834 59.4034 0.685222C59.6226 0.685222 59.8418 0.685222 60.061 0.685222H61.157C61.5954 0.685222 61.8146 0.685222 62.0338 0.685222C62.0338 0.685222 62.253 0.903844 62.4722 1.12246C62.4722 1.12246 62.4722 1.12245 62.4722 1.34106C62.4722 1.34106 62.4722 1.34106 62.4722 1.55967L68.1714 15.3322L73.6515 1.12246Z" fill="#34464F"/>
<path d="M91.626 18.3928L89.8724 22.3278C89.8724 22.5464 89.6532 22.765 89.6532 22.765C89.6532 22.9836 89.434 22.9836 89.434 22.9836H89.2148C88.9956 22.9836 88.9956 22.9836 88.5572 22.9836H86.3652C85.9268 22.9836 85.7076 22.9836 85.4884 22.765C85.2692 22.765 85.2692 22.5464 85.2692 22.3278V22.1092C85.2692 22.1092 85.2692 21.8906 85.4884 21.672L94.2564 1.12246C94.2564 1.12246 94.2564 0.903847 94.4756 0.903847C94.6948 0.685235 94.6948 0.466614 94.914 0.466614C94.914 0.466614 95.3524 0.466614 95.7908 0.466614H97.106C97.5444 0.466614 97.7636 0.466614 97.9828 0.466614C98.202 0.466614 98.202 0.685235 98.4212 0.903847V1.12246C98.4212 1.12246 98.4212 1.12245 98.4212 1.34106L106.97 21.8906C107.189 22.3278 107.189 22.5464 107.189 22.5464C107.189 22.765 107.189 22.9836 106.97 22.9836C106.751 22.9836 106.532 23.2022 106.093 23.2022H103.901C103.682 23.2022 103.463 23.2022 103.463 23.2022C103.244 23.2022 103.244 23.2022 103.244 23.2022L103.024 22.9836C103.024 22.765 102.805 22.765 102.805 22.5464L101.271 18.6114H91.626V18.3928ZM96.4484 6.80636L93.1604 14.895H99.5172L96.4484 6.80636Z" fill="#34464F"/>
<path d="M122.533 19.2671C122.972 19.2671 123.41 19.2671 123.41 19.4858C123.629 19.7044 123.629 19.923 123.629 20.3602V21.8905C123.629 22.3277 123.629 22.7649 123.41 22.9835C123.191 23.2021 122.972 23.2021 122.533 23.2021H113.546C113.108 23.2021 112.669 23.2021 112.669 22.9835C112.45 22.7649 112.45 22.5463 112.45 21.8905V1.99681C112.45 1.55958 112.45 1.12236 112.669 1.12236C112.889 0.903744 113.108 0.903748 113.546 0.903748H115.519C115.957 0.903748 116.396 0.903744 116.396 1.12236C116.615 1.34097 116.615 1.55958 116.615 1.99681V19.4858H122.533V19.2671Z" fill="#34464F"/>
<path d="M133.493 21.8905C133.493 22.3277 133.493 22.765 133.274 22.765C133.055 22.9836 132.836 22.9836 132.397 22.9836H130.425C129.986 22.9836 129.548 22.9836 129.548 22.765C129.329 22.5463 129.329 22.3277 129.329 21.8905V1.77821C129.329 1.34099 129.329 0.903775 129.548 0.903775C129.767 0.685163 129.986 0.68515 130.425 0.68515H132.397C132.836 0.68515 133.274 0.685163 133.274 0.903775C133.493 1.12239 133.493 1.34099 133.493 1.77821V21.8905Z" fill="#34464F"/>
<path d="M1.09601 41.7842C0.657603 41.7842 0.219201 41.7842 0.219201 41.5656C-2.12313e-07 41.347 0 41.1284 0 40.6911V39.1609C0 38.7236 -2.12313e-07 38.2864 0.219201 38.0678C0.438402 37.8492 0.657603 37.8492 1.09601 37.8492H13.1521C13.5905 37.8492 14.0289 37.8492 14.0289 38.0678C14.2481 38.2864 14.2481 38.505 14.2481 39.1609V40.6911C14.2481 41.1284 14.2481 41.5656 14.0289 41.5656C14.0289 41.5656 13.8097 41.7842 13.3713 41.7842H9.42565V59.2732C9.42565 59.7104 9.42565 60.1476 9.20645 60.1476C8.98725 60.3662 8.76804 60.3662 8.32964 60.3662H6.13763C5.69923 60.3662 5.26083 60.3662 5.26083 60.1476C5.04163 59.929 5.04163 59.7104 5.04163 59.0545V41.5656H1.09601V41.7842Z" fill="#34464F"/>
<path d="M24.1119 46.5937H30.688C31.1264 46.5937 31.5648 46.5937 31.5648 46.8123C31.784 47.0309 31.784 47.2495 31.784 47.9054V49.4357C31.784 49.8729 31.784 50.3101 31.5648 50.5287C31.3456 50.7473 31.1264 50.7473 30.688 50.7473H24.1119V56.8685H30.9072C31.3456 56.8685 31.784 56.8685 31.784 57.0871C32.0032 57.3057 32.0032 57.5243 32.0032 58.1801V59.7104C32.0032 60.1476 32.0032 60.5849 31.784 60.8035C31.5648 61.0221 31.3456 61.0221 30.9072 61.0221H20.8239C20.3855 61.0221 19.9471 61.0221 19.9471 60.8035C19.7279 60.5849 19.7279 60.3663 19.7279 59.7104V39.8167C19.7279 39.3795 19.7279 38.9423 19.9471 38.7237C20.1663 38.5051 20.3855 38.5051 20.8239 38.5051H30.9072C31.3456 38.5051 31.784 38.5051 31.784 38.7237C32.0032 38.9423 32.0032 39.1609 32.0032 39.8167V41.347C32.0032 41.7843 32.0032 42.2215 31.784 42.2215C31.5648 42.4401 31.3456 42.4401 30.9072 42.4401H24.1119V46.5937Z" fill="#34464F"/>
<path d="M52.8274 46.5937V39.1609C52.8274 38.7236 52.8274 38.2864 53.0466 38.0678C53.2658 37.8492 53.485 37.8492 53.9234 37.8492H55.8962C56.3346 37.8492 56.773 37.8492 56.773 38.0678C56.9922 38.2864 56.9922 38.505 56.9922 39.1609V59.0545C56.9922 59.4918 56.9922 59.929 56.773 59.929C56.5538 60.1476 56.3346 60.1476 55.8962 60.1476H53.9234C53.485 60.1476 53.0466 60.1476 53.0466 59.929C52.8274 59.7104 52.8274 59.4918 52.8274 59.0545V50.3101H43.4018V59.0545C43.4018 59.4918 43.4018 59.929 43.1826 59.929C42.9634 60.1476 42.7442 60.1476 42.3058 60.1476H40.3329C39.8945 60.1476 39.4561 60.1476 39.4561 59.929C39.2369 59.7104 39.2369 59.4918 39.2369 59.0545V39.1609C39.2369 38.7236 39.2369 38.2864 39.4561 38.0678C39.6753 37.8492 39.8945 37.8492 40.3329 37.8492H42.3058C42.7442 37.8492 43.1826 37.8492 43.1826 38.0678C43.4018 38.2864 43.4018 38.505 43.4018 39.1609V46.5937H52.8274Z" fill="#34464F"/>
<path d="M81.762 39.1609C81.762 38.7237 81.762 38.2864 81.9812 38.2864C82.2004 38.0678 82.4196 38.0678 82.858 38.0678H84.8308C85.2692 38.0678 85.7076 38.0678 85.7076 38.2864C85.9268 38.505 85.9268 38.7237 85.9268 39.1609V59.7104C85.9268 60.1476 85.9268 60.5848 85.7076 60.5848C85.4884 60.8034 85.2692 60.8034 84.8308 60.8034H83.7348H83.2964C83.0772 60.8034 83.0772 60.8034 83.0772 60.8034C83.0772 60.8034 82.858 60.8034 82.858 60.5848C82.858 60.5848 82.6388 60.3662 82.6388 60.1476L69.4867 45.282V59.2732C69.4867 59.7104 69.4867 60.1476 69.2675 60.1476C69.0483 60.3662 68.8291 60.3662 68.3907 60.3662H66.4179C65.9795 60.3662 65.5411 60.3662 65.5411 60.1476C65.3219 59.929 65.3219 59.7104 65.3219 59.2732V38.7236C65.3219 38.2864 65.3219 37.8492 65.5411 37.8492C65.7603 37.6306 65.9795 37.6306 66.4179 37.6306H67.5139H67.9523H68.1715C68.1715 37.6306 68.3907 37.6306 68.3907 37.8492C68.3907 37.8492 68.6099 38.0678 68.6099 38.2864L81.762 53.152V39.1609Z" fill="#34464F"/>
<path d="M109.162 38.2864C110.697 38.9423 111.793 39.8167 112.889 40.6912C113.985 41.7842 114.861 42.8773 115.519 44.4076C116.177 45.7192 116.396 47.2495 116.396 48.9984C116.396 50.5287 116.177 52.059 115.519 53.5893C114.861 55.1195 113.985 56.2126 112.889 57.3057C111.793 58.3987 110.477 59.2732 109.162 59.7104C107.628 60.3662 106.093 60.5848 104.559 60.5848C102.805 60.5848 101.271 60.3662 99.7366 59.7104C98.2022 59.0546 97.1062 58.3987 96.0101 57.3057C94.9141 56.2126 94.0373 55.1195 93.3797 53.5893C92.7221 52.2776 92.5029 50.7473 92.5029 48.9984C92.5029 47.2495 92.7221 45.7192 93.3797 44.4076C94.0373 43.0959 94.9141 41.7842 96.0101 40.6912C97.1062 39.5981 98.4214 38.7237 99.7366 38.2864C101.271 37.6306 102.805 37.412 104.34 37.412C106.093 37.412 107.847 37.8492 109.162 38.2864ZM101.709 42.0028C100.833 42.4401 99.9558 42.8773 99.2982 43.5331C98.6406 44.189 97.983 45.0634 97.7638 45.9379C97.3253 46.8123 97.1062 47.9054 97.1062 48.9984C97.1062 50.0915 97.3253 50.9659 97.7638 52.059C98.2022 52.9334 98.6406 53.8079 99.2982 54.4637C99.9558 55.1196 100.833 55.7754 101.709 56.2126C102.586 56.6498 103.682 56.8684 104.559 56.8684C105.655 56.8684 106.532 56.6498 107.409 56.2126C108.285 55.7754 109.162 55.3382 109.82 54.4637C110.477 53.8079 110.916 52.9334 111.354 52.059C111.793 51.1845 112.012 50.0915 112.012 48.9984C112.012 47.9054 111.793 47.0309 111.354 45.9379C110.916 45.0634 110.477 44.189 109.82 43.5331C109.162 42.8773 108.285 42.2214 107.409 42.0028C106.532 41.5656 105.436 41.347 104.559 41.347C103.463 41.347 102.586 41.5656 101.709 42.0028Z" fill="#34464F"/>
<path d="M127.356 59.0545C127.356 59.4918 127.356 59.929 127.137 59.929C126.917 60.1476 126.698 60.1476 126.26 60.1476H124.287C123.849 60.1476 123.41 60.1476 123.41 59.929C123.191 59.7104 123.191 59.4918 123.191 59.0545V39.1609C123.191 38.7236 123.191 38.2864 123.41 38.0678C123.629 37.8492 123.849 37.8492 124.287 37.8492H129.767C131.301 37.8492 132.397 38.0678 133.274 38.2864C134.151 38.505 135.028 38.9422 135.686 39.5981C136.343 40.2539 137.001 41.1284 137.439 42.0028C137.878 42.8773 138.097 43.9703 138.097 44.8448C138.097 47.0309 137.439 48.7798 136.124 50.0915C134.809 51.4031 133.055 51.8403 130.425 51.8403H127.575V59.0545H127.356ZM129.109 48.124C131.74 48.124 133.274 47.0309 133.274 44.8448C133.274 43.7517 132.836 42.8773 132.178 42.44C131.521 42.0028 130.425 41.5656 128.89 41.5656H127.356V48.124H129.109Z" fill="#34464F"/>
<path d="M159.14 38.2864C160.674 38.9423 161.77 39.8167 162.866 40.6912C163.962 41.7842 164.839 42.8773 165.497 44.4076C166.154 45.7192 166.374 47.2495 166.374 48.9984C166.374 50.5287 166.154 52.059 165.497 53.5893C164.839 55.1195 163.962 56.2126 162.866 57.3057C161.77 58.3987 160.455 59.2732 159.14 59.7104C157.606 60.3662 156.071 60.5848 154.537 60.5848C152.783 60.5848 151.249 60.3662 149.714 59.7104C148.18 59.0546 147.084 58.3987 145.988 57.3057C144.892 56.2126 144.015 55.1195 143.358 53.5893C142.7 52.2776 142.481 50.7473 142.481 48.9984C142.481 47.2495 142.7 45.7192 143.358 44.4076C144.015 43.0959 144.892 41.7842 145.988 40.6912C147.084 39.5981 148.399 38.7237 149.714 38.2864C151.249 37.6306 152.783 37.412 154.318 37.412C156.071 37.412 157.825 37.8492 159.14 38.2864ZM151.687 42.0028C150.81 42.4401 149.934 42.8773 149.276 43.5331C148.618 44.189 147.961 45.0634 147.742 45.9379C147.303 46.8123 147.084 47.9054 147.084 48.9984C147.084 50.0915 147.303 50.9659 147.742 52.059C148.18 52.9334 148.618 53.8079 149.276 54.4637C149.934 55.1196 150.81 55.7754 151.687 56.2126C152.564 56.6498 153.66 56.8684 154.537 56.8684C155.633 56.8684 156.51 56.6498 157.386 56.2126C158.263 55.7754 159.14 55.3382 159.798 54.4637C160.455 53.8079 160.894 52.9334 161.332 52.059C161.77 51.1845 161.99 50.0915 161.99 48.9984C161.99 47.9054 161.77 47.0309 161.332 45.9379C160.894 45.0634 160.455 44.189 159.798 43.5331C159.14 42.8773 158.263 42.2214 157.386 42.0028C156.51 41.5656 155.414 41.347 154.537 41.347C153.441 41.347 152.564 41.5656 151.687 42.0028Z" fill="#34464F"/>
<path d="M183.033 56.4312C183.471 56.4312 183.91 56.4312 183.91 56.6498C184.129 56.8684 184.129 57.0871 184.129 57.7429V59.2732C184.129 59.7104 184.129 60.1476 183.91 60.3662C183.691 60.5848 183.471 60.5848 183.033 60.5848H174.046C173.607 60.5848 173.169 60.5848 173.169 60.3662C172.95 60.1476 172.95 59.929 172.95 59.2732V39.3795C172.95 38.9423 172.95 38.505 173.169 38.505C173.388 38.2864 173.607 38.2864 174.046 38.2864H176.238C176.676 38.2864 177.115 38.2864 177.115 38.505C177.334 38.7237 177.334 38.9423 177.334 39.3795V56.8684H183.033V56.4312Z" fill="#34464F"/>
<path d="M193.993 59.0545C193.993 59.4918 193.993 59.929 193.774 59.929C193.555 60.1476 193.335 60.1476 192.897 60.1476H190.924C190.486 60.1476 190.047 60.1476 190.047 59.929C189.828 59.7104 189.828 59.4918 189.828 59.0545V38.9422C189.828 38.505 189.828 38.0678 190.047 38.0678C190.267 37.8492 190.486 37.8492 190.924 37.8492H192.897C193.335 37.8492 193.774 37.8492 193.774 38.0678C193.993 38.2864 193.993 38.505 193.993 38.9422V59.0545Z" fill="#34464F"/>
<path d="M213.283 42.0028C213.063 42.2214 212.844 42.4401 212.844 42.4401C212.844 42.4401 212.625 42.4401 212.406 42.4401H212.187C212.187 42.4401 212.187 42.4401 211.967 42.4401L211.748 42.2214C211.748 42.2214 211.529 42.0028 211.31 41.7842C211.091 41.5656 210.652 41.347 210.214 41.1284C209.775 40.9098 209.337 40.9098 208.899 40.9098C208.022 40.9098 207.364 41.1284 206.707 41.5656C206.049 42.0028 205.83 42.6587 205.83 43.3145C205.83 43.9703 206.049 44.4076 206.487 44.8448C206.926 45.282 207.803 45.7192 209.118 46.1565C210.433 46.5937 211.31 47.0309 212.187 47.4681C213.063 47.9054 213.721 48.3426 214.159 48.9984C214.598 49.4356 215.036 50.0915 215.255 50.7473C215.475 51.4031 215.475 52.2776 215.475 53.152C215.475 54.2451 215.255 55.1195 214.817 56.2126C214.379 57.087 213.94 57.9615 213.283 58.6173C212.625 59.2732 211.748 59.7104 210.871 60.1476C209.995 60.5848 208.899 60.5848 207.803 60.5848C206.487 60.5848 205.172 60.3662 203.857 59.7104C202.761 59.2732 201.665 58.3987 200.788 57.5243C200.569 57.3057 200.35 57.0871 200.35 56.8684C200.35 56.6498 200.131 56.6498 200.131 56.4312C200.131 56.2126 200.131 56.2126 200.131 55.994C200.131 55.994 200.35 55.7754 200.569 55.5568L201.665 54.4637C201.884 54.2451 202.103 54.0265 202.103 54.0265H202.323H202.542C202.542 54.0265 202.542 54.0265 202.761 54.0265C202.761 54.0265 202.98 54.2451 203.199 54.4637C203.419 54.6823 203.638 54.9009 203.857 55.1195C204.076 55.5568 204.734 55.7754 205.391 55.994C206.049 56.2126 206.707 56.4312 207.364 56.4312C208.241 56.4312 209.118 56.2126 209.775 55.5568C210.433 54.9009 210.652 54.2451 210.652 53.3707C210.652 52.4962 210.214 51.6217 209.337 50.9659C209.118 50.7473 208.679 50.7473 208.241 50.5287C207.803 50.3101 207.145 50.0915 206.268 49.6542C205.172 49.217 204.295 48.9984 203.638 48.5612C202.98 48.124 202.323 47.6867 201.884 47.2495C201.446 46.8123 201.227 46.1565 201.007 45.7192C200.788 45.0634 200.788 44.4076 200.788 43.7517C200.788 42.8773 201.007 42.0028 201.227 41.1284C201.665 40.2539 202.103 39.5981 202.761 39.1609C203.419 38.5051 204.076 38.0678 204.953 37.8492C205.83 37.6306 206.707 37.412 207.803 37.412C208.679 37.412 209.556 37.6306 210.652 37.8492C211.529 38.0678 212.406 38.505 213.283 38.9423C213.721 39.1609 213.94 39.3795 213.94 39.5981C213.94 39.8167 214.159 39.8167 214.159 40.0353C214.159 40.2539 214.159 40.2539 213.94 40.4726C213.721 40.6912 213.721 40.6912 213.721 40.6912L213.283 42.0028Z" fill="#34464F"/>
<path d="M94.2564 77.418C94.0372 77.6366 93.818 77.8552 93.818 77.8552C93.818 77.8552 93.5988 77.8552 93.3796 77.8552H93.1604C93.1604 77.8552 93.1604 77.8552 92.9412 77.8552L92.722 77.6366C92.722 77.6366 92.5028 77.418 92.2836 77.1994C92.0644 76.9808 91.626 76.7622 91.1876 76.5435C90.7492 76.3249 90.3108 76.3249 89.8724 76.3249C88.9956 76.3249 88.338 76.5435 87.6804 76.9808C87.0228 77.418 86.8036 78.0738 86.8036 78.7297C86.8036 79.3855 87.0228 79.8227 87.4612 80.2599C87.8996 80.6972 88.7764 81.1344 90.0916 81.5716C91.4068 82.0088 92.2836 82.4461 93.1604 82.8833C94.0372 83.3205 94.6948 83.7577 95.1332 84.4136C95.5716 84.8508 96.01 85.5066 96.2292 86.1625C96.4484 86.8183 96.4485 87.6928 96.4485 88.5672C96.4485 89.6603 96.2293 90.5347 95.7909 91.4092C95.3524 92.2836 94.914 93.1581 94.2564 93.8139C93.5988 94.4697 92.722 94.907 91.8452 95.3442C90.9684 95.7814 89.8724 95.7814 88.7764 95.7814C87.4612 95.7814 86.146 95.5628 84.8308 94.907C83.7348 94.4697 82.6388 93.5953 81.762 92.7208C81.5428 92.5022 81.3236 92.2836 81.3236 92.065C81.3236 91.8464 81.1044 91.8464 81.1044 91.6278C81.1044 91.4092 81.1044 91.4092 81.1044 91.1905C81.1044 91.1905 81.3236 90.9719 81.5428 90.7533L82.6388 89.6603C82.858 89.4417 83.0772 89.223 83.0772 89.223H83.2964H83.954C83.954 89.223 83.954 89.223 84.1732 89.223C84.1732 89.223 84.3924 89.4417 84.6116 89.6603C84.8308 89.8789 85.05 90.0975 85.2692 90.3161C85.4884 90.7533 86.146 90.9719 86.8036 91.1905C87.4612 91.4092 88.1188 91.6278 88.7764 91.6278C89.6532 91.6278 90.53 91.4092 91.1876 90.7533C91.8452 90.0975 92.0644 89.4417 92.0644 88.5672C92.0644 87.6928 91.626 86.8183 90.7492 86.1625C90.53 85.9439 90.0916 85.9439 89.6532 85.7252C89.2148 85.5066 88.5572 85.288 87.6804 84.8508C86.5844 84.4136 85.7076 83.9763 85.05 83.7577C84.3924 83.3205 83.7348 82.8833 83.2964 82.4461C82.858 82.0088 82.6388 81.353 82.4196 80.9158C82.2004 80.26 82.2004 79.6041 82.2004 78.9483C82.2004 78.0738 82.4196 77.1994 82.6388 76.3249C83.0772 75.4505 83.5156 74.7946 84.1732 74.3574C84.8308 73.7016 85.4884 73.2644 86.3652 73.0458C87.242 72.8271 88.1188 72.6085 89.2148 72.6085C90.0916 72.6085 90.9684 72.8271 92.0644 73.0458C92.9412 73.2644 93.818 73.7016 94.6948 74.1388C95.1332 74.3574 95.3524 74.576 95.3524 74.7946C95.5716 75.0133 95.5716 75.0133 95.5716 75.2319C95.5716 75.4505 95.5716 75.4505 95.3524 75.6691C95.1332 75.8877 95.1332 75.8877 95.1332 75.8877L94.2564 77.418Z" fill="#34464F"/>
<path d="M106.751 90.7533L104.997 94.6883C104.997 94.9069 104.778 95.1255 104.778 95.1255C104.778 95.3441 104.559 95.3441 104.559 95.3441H104.34C104.121 95.3441 104.121 95.3441 103.682 95.3441H101.49C101.052 95.3441 100.833 95.3441 100.613 95.1255C100.394 95.1255 100.394 94.9069 100.394 94.6883V94.4697C100.394 94.4697 100.394 94.2511 100.613 94.0325L109.381 73.483C109.381 73.483 109.381 73.2644 109.601 73.2644C109.82 73.0457 109.82 72.8271 109.82 72.8271C110.039 72.8271 110.258 72.8271 110.697 72.8271H112.012C112.45 72.8271 112.669 72.8271 112.889 72.8271C113.108 72.8271 113.108 73.0457 113.327 73.2644V73.483C113.327 73.483 113.327 73.483 113.327 73.7016L121.876 94.2511C122.095 94.6883 122.095 94.9069 122.095 94.9069C122.095 95.1255 122.095 95.3441 121.876 95.3441C121.657 95.3441 121.437 95.5627 120.999 95.5627H118.807C118.588 95.5627 118.369 95.5627 118.369 95.5627C118.149 95.5627 118.149 95.5627 118.149 95.5627L117.93 95.3441C117.93 95.1255 117.711 95.1255 117.711 94.9069L116.177 90.9719H106.751V90.7533ZM111.354 79.3855L108.066 87.4741H114.642L111.354 79.3855Z" fill="#34464F"/>
<path d="M146.207 73.7015C146.207 73.4829 146.426 73.2643 146.426 73.2643L146.646 73.0457H146.865H147.303H148.399C148.618 73.0457 148.838 73.0457 149.057 73.0457C149.276 73.0457 149.276 73.0457 149.276 73.2643L149.495 73.4829C149.495 73.7015 149.495 73.7015 149.714 74.1387L153.002 94.4696C153.002 94.6882 153.002 94.6883 153.002 94.9069V95.1255C153.002 95.3441 153.002 95.5627 152.783 95.5627C152.564 95.5627 152.345 95.7813 151.906 95.7813H149.934C149.495 95.7813 149.057 95.7813 149.057 95.5627C148.838 95.5627 148.838 95.1255 148.838 94.6882L147.084 82.0088L141.385 95.1255L141.166 95.3441C140.946 95.7813 140.727 95.9999 140.289 95.9999C140.07 95.9999 139.85 95.9999 139.631 95.9999C139.412 95.9999 139.412 95.7813 139.193 95.5627C139.193 95.5627 139.193 95.5627 139.193 95.3441C139.193 95.3441 139.193 95.3441 139.193 95.1255L133.493 82.0088L131.521 94.6882V94.9069C131.521 94.9069 131.521 94.9069 131.521 95.1255C131.521 95.3441 131.301 95.5627 131.301 95.7813C131.082 95.7813 130.863 95.9999 130.425 95.9999H128.452C128.013 95.9999 127.794 95.9999 127.575 95.7813C127.356 95.7813 127.356 95.5627 127.356 95.3441V95.1255C127.356 95.1255 127.356 94.9069 127.356 94.6882L131.082 74.3574C131.082 74.1387 131.082 73.9201 131.301 73.7015C131.301 73.4829 131.301 73.4829 131.521 73.4829C131.521 73.4829 131.74 73.4829 131.959 73.2643C132.178 73.2643 132.397 73.2643 132.617 73.2643H133.713C134.151 73.2643 134.37 73.2643 134.589 73.2643C134.809 73.2643 134.809 73.4829 135.028 73.7015C135.028 73.7015 135.028 73.7015 135.028 73.9201C135.028 73.9201 135.028 73.9201 135.028 74.1387L140.727 87.9113L146.207 73.7015Z" fill="#34464F"/>
<path d="M174.703 73.7016C176.238 74.3574 177.334 75.2318 178.43 76.1063C179.526 77.1994 180.403 78.2924 181.06 79.8227C181.718 81.1344 181.937 82.6647 181.937 84.4136C181.937 85.9438 181.718 87.4741 181.06 89.0044C180.403 90.5347 179.526 91.6277 178.43 92.7208C177.334 93.8139 176.018 94.6883 174.703 95.1255C173.169 95.7814 171.634 96 170.1 96C168.346 96 166.812 95.7814 165.278 95.1255C163.743 94.4697 162.647 93.8139 161.551 92.7208C160.455 91.6277 159.578 90.5347 158.921 89.0044C158.263 87.6927 158.044 86.1624 158.044 84.4136C158.044 82.6647 158.263 81.1344 158.921 79.8227C159.578 78.511 160.455 77.1994 161.551 76.1063C162.647 75.0132 163.962 74.1388 165.278 73.7016C166.812 73.0457 168.346 72.8271 169.881 72.8271C171.854 72.8271 173.388 73.0457 174.703 73.7016ZM167.25 77.418C166.374 77.8552 165.497 78.2924 164.839 78.9483C164.182 79.6041 163.524 80.4785 163.305 81.353C162.866 82.2274 162.647 83.3205 162.647 84.4136C162.647 85.5066 162.866 86.3811 163.305 87.4741C163.743 88.3486 164.182 89.223 164.839 89.8788C165.497 90.5347 166.374 91.1905 167.25 91.6277C168.127 92.065 169.223 92.2836 170.1 92.2836C171.196 92.2836 172.073 92.065 172.95 91.6277C173.826 91.1905 174.703 90.7533 175.361 89.8788C176.018 89.223 176.457 88.3486 176.895 87.4741C177.334 86.5997 177.553 85.5066 177.553 84.4136C177.553 83.3205 177.334 82.446 176.895 81.353C176.457 80.4785 176.018 79.6041 175.361 78.9483C174.703 78.2924 173.826 77.6366 172.95 77.418C172.073 76.9808 170.977 76.7621 170.1 76.7621C169.004 76.7621 168.127 76.9808 167.25 77.418Z" fill="#34464F"/>
<path d="M194.212 73.2643C196.843 73.2643 198.596 73.7016 199.692 74.576C200.35 75.0132 200.788 75.6691 201.227 76.5435C201.665 77.418 201.665 78.2924 201.665 79.1669C201.665 80.2599 201.446 81.1344 201.007 81.7902C200.569 82.446 199.911 83.1019 199.035 83.5391C200.569 83.7577 201.665 84.4135 202.323 85.5066C202.98 86.381 203.419 87.6927 203.419 89.223C203.419 91.1905 202.761 92.7208 201.446 93.8139C200.131 94.9069 198.158 95.5627 195.966 95.5627H189.609C189.171 95.5627 188.732 95.5627 188.732 95.3441C188.513 95.1255 188.513 94.9069 188.513 94.4697V74.3574C188.513 73.9202 188.513 73.483 188.732 73.483C188.951 73.2643 189.171 73.2643 189.609 73.2643H194.212ZM194.212 82.446C196.404 82.446 197.5 81.5716 197.5 79.6041C197.5 77.6366 196.404 76.7621 194.212 76.7621H192.897V82.446H194.212ZM194.87 92.065C197.719 92.065 199.254 90.9719 199.254 89.0044C199.254 87.9113 198.815 87.0369 198.158 86.5997C197.5 86.1624 196.185 85.9438 194.651 85.9438H192.897V92.065H194.87Z" fill="#34464F"/>
<path d="M225.558 73.7016C227.092 74.3574 228.188 75.2318 229.284 76.1063C230.38 77.1994 231.257 78.2924 231.915 79.8227C232.572 81.1344 232.792 82.6647 232.792 84.4136C232.792 85.9438 232.572 87.4741 231.915 89.0044C231.257 90.5347 230.38 91.6277 229.284 92.7208C228.188 93.8139 226.873 94.6883 225.558 95.1255C224.024 95.7814 222.489 96 220.955 96C219.201 96 217.667 95.7814 216.132 95.1255C214.598 94.4697 213.502 93.8139 212.406 92.7208C211.31 91.6277 210.433 90.5347 209.775 89.0044C209.118 87.6927 208.899 86.1624 208.899 84.4136C208.899 82.6647 209.118 81.1344 209.775 79.8227C210.433 78.511 211.31 77.1994 212.406 76.1063C213.502 75.0132 214.817 74.1388 216.132 73.7016C217.667 73.0457 219.201 72.8271 220.736 72.8271C222.489 72.8271 224.024 73.0457 225.558 73.7016ZM217.886 77.418C217.009 77.8552 216.132 78.2924 215.475 78.9483C214.817 79.6041 214.16 80.4785 213.94 81.353C213.502 82.2274 213.283 83.3205 213.283 84.4136C213.283 85.5066 213.502 86.3811 213.94 87.4741C214.379 88.3486 214.817 89.223 215.475 89.8788C216.132 90.5347 217.009 91.1905 217.886 91.6277C218.763 92.065 219.859 92.2836 220.736 92.2836C221.832 92.2836 222.708 92.065 223.585 91.6277C224.462 91.1905 225.339 90.7533 225.996 89.8788C226.654 89.223 227.092 88.3486 227.531 87.4741C227.969 86.5997 228.188 85.5066 228.188 84.4136C228.188 83.3205 227.969 82.446 227.531 81.353C227.092 80.4785 226.654 79.6041 225.996 78.9483C225.339 78.2924 224.462 77.6366 223.585 77.418C222.708 76.9808 221.612 76.7621 220.736 76.7621C219.64 76.7621 218.763 76.9808 217.886 77.418Z" fill="#34464F"/>
<path d="M254.493 94.0325C254.712 94.2511 254.712 94.4697 254.931 94.4697V94.6883C254.931 94.9069 254.931 95.1255 254.712 95.1255C254.493 95.1255 254.273 95.3441 253.835 95.3441H251.205C250.766 95.3441 250.547 95.3441 250.328 95.3441C250.328 95.3441 250.109 95.1255 249.889 94.9069C249.889 94.9069 249.889 94.9069 249.889 94.6883C249.889 94.6883 249.889 94.6883 249.889 94.4697L244.409 86.1624H243.752V94.0325C243.752 94.4697 243.752 94.9069 243.533 94.9069C243.313 95.1255 243.094 95.1255 242.656 95.1255H240.464C240.025 95.1255 239.587 95.1255 239.587 94.9069C239.368 94.6883 239.368 94.4697 239.368 94.0325V73.9202C239.368 73.483 239.368 73.0457 239.587 73.0457C239.806 72.8271 240.025 72.8271 240.464 72.8271H245.725C248.355 72.8271 250.109 73.483 251.643 74.576C252.958 75.6691 253.616 77.418 253.616 79.3855C253.616 81.1344 253.177 82.446 252.301 83.5391C251.424 84.6322 250.109 85.288 248.574 85.7252L254.493 94.0325ZM244.848 83.5391C247.697 83.5391 249.013 82.446 249.013 80.0413C249.013 78.9483 248.574 78.0738 247.917 77.6366C247.259 76.9808 246.163 76.7621 244.848 76.7621H243.533V83.5391H244.848Z" fill="#34464F"/>
</svg>
