<svg width="161" height="143" viewBox="0 0 161 143" fill="none" xmlns="http://www.w3.org/2000/svg">
<path d="M42.8928 90.3158C42.8928 90.1944 43.0143 90.0731 43.0143 90.0731C43.0143 89.9517 43.1358 89.9517 43.1358 89.9517H43.2573H43.5003H44.1079C44.2294 89.9517 44.3509 89.9517 44.4724 89.9517C44.5939 89.9517 44.5939 89.9517 44.7154 90.0731L44.837 90.1944C44.837 90.3158 44.837 90.3158 44.9585 90.5586L46.7811 101.848C46.7811 101.969 46.7811 101.969 46.7811 102.091V102.212C46.7811 102.334 46.7811 102.455 46.6596 102.455C46.5381 102.455 46.4166 102.576 46.1736 102.576H44.9585C44.7154 102.576 44.4724 102.576 44.4724 102.455C44.3509 102.455 44.3509 102.212 44.3509 101.969L43.3788 94.9287L40.2196 102.212L40.0981 102.334C39.9766 102.576 39.8551 102.698 39.612 102.698C39.4905 102.698 39.369 102.698 39.2475 102.698C39.126 102.698 39.126 102.576 39.0045 102.455C39.0045 102.455 39.0045 102.455 39.0045 102.334C39.0045 102.334 39.0045 102.334 39.0045 102.212L35.8453 94.9287L34.7517 101.969V102.091C34.7517 102.091 34.7517 102.091 34.7517 102.212C34.7517 102.334 34.6302 102.455 34.6302 102.576C34.5087 102.576 34.3871 102.698 34.1441 102.698H33.0505C32.8075 102.698 32.686 102.698 32.5645 102.576C32.443 102.576 32.443 102.455 32.443 102.334V102.212C32.443 102.212 32.443 102.091 32.443 101.969L34.5087 90.68C34.5087 90.5586 34.5087 90.4372 34.6302 90.3158C34.6302 90.1944 34.6302 90.1944 34.7517 90.1944C34.7517 90.1944 34.8732 90.1944 34.9947 90.0731C35.1162 90.0731 35.2377 90.0731 35.3592 90.0731H35.9668C36.2098 90.0731 36.3313 90.0731 36.4528 90.0731C36.4528 90.0731 36.5743 90.1944 36.6958 90.3158C36.6958 90.3158 36.6958 90.3158 36.6958 90.4372C36.6958 90.4372 36.6958 90.4372 36.6958 90.5586L39.8551 98.2063L42.8928 90.3158Z" fill="#34464F"/>
<path d="M52.8566 99.9058L51.8845 102.091C51.8845 102.212 51.763 102.334 51.763 102.334C51.763 102.455 51.6415 102.455 51.6415 102.455H51.52C51.3985 102.455 51.3985 102.455 51.1555 102.455H49.9404C49.6974 102.455 49.5758 102.455 49.4543 102.334C49.3328 102.334 49.3328 102.212 49.3328 102.091V101.969C49.3328 101.969 49.3328 101.848 49.4543 101.727L54.3147 90.3158C54.3147 90.3158 54.3147 90.1944 54.4362 90.1944C54.5577 90.0731 54.5577 89.9517 54.6792 89.9517C54.6792 89.9517 54.9223 89.9517 55.1653 89.9517H55.8943C56.1374 89.9517 56.2589 89.9517 56.3804 89.9517C56.5019 89.9517 56.5019 90.0731 56.6234 90.1944V90.3158C56.6234 90.3158 56.6234 90.3158 56.6234 90.4372L61.3623 101.848C61.4838 102.091 61.4838 102.212 61.4838 102.212C61.4838 102.334 61.4838 102.455 61.3623 102.455C61.2408 102.455 61.1192 102.576 60.8762 102.576H59.6611C59.5396 102.576 59.4181 102.576 59.4181 102.576C59.2966 102.576 59.2966 102.576 59.2966 102.576L59.1751 102.455C59.1751 102.334 59.0536 102.334 59.0536 102.212L58.203 100.027H52.8566V99.9058ZM55.5298 93.472L53.7072 97.9635H57.2309L55.5298 93.472Z" fill="#34464F"/>
<path d="M69.9895 100.391C70.2325 100.391 70.4755 100.391 70.4755 100.513C70.597 100.634 70.597 100.755 70.597 100.998V101.848C70.597 102.091 70.597 102.334 70.4755 102.455C70.354 102.576 70.2325 102.576 69.9895 102.576H65.0076C64.7646 102.576 64.5215 102.576 64.5215 102.455C64.4 102.334 64.4 102.212 64.4 101.848V90.8013C64.4 90.5585 64.4 90.3157 64.5215 90.3157C64.643 90.1943 64.7646 90.1943 65.0076 90.1943H66.1012C66.3442 90.1943 66.5872 90.1943 66.5872 90.3157C66.7087 90.4371 66.7087 90.5585 66.7087 90.8013V100.513H69.9895V100.391Z" fill="#34464F"/>
<path d="M76.0649 101.848C76.0649 102.091 76.0649 102.334 75.9434 102.334C75.8219 102.455 75.7004 102.455 75.4574 102.455H74.3638C74.1208 102.455 73.8777 102.455 73.8777 102.334C73.7562 102.212 73.7562 102.091 73.7562 101.848V90.6802C73.7562 90.4374 73.7562 90.1946 73.8777 90.1946C73.9992 90.0732 74.1208 90.0732 74.3638 90.0732H75.4574C75.7004 90.0732 75.9434 90.0732 75.9434 90.1946C76.0649 90.316 76.0649 90.4374 76.0649 90.6802V101.848Z" fill="#34464F"/>
<path d="M2.67322 112.895C2.4302 112.895 2.18718 112.895 2.18718 112.774C2.06567 112.652 2.06567 112.531 2.06567 112.288V111.438C2.06567 111.196 2.06567 110.953 2.18718 110.831C2.30869 110.71 2.4302 110.71 2.67322 110.71H9.35624C9.59926 110.71 9.84228 110.71 9.84228 110.831C9.96379 110.953 9.96379 111.074 9.96379 111.438V112.288C9.96379 112.531 9.96379 112.774 9.84228 112.774C9.84228 112.774 9.72077 112.895 9.47775 112.895H7.29058V122.606C7.29058 122.849 7.29058 123.092 7.16907 123.092C7.04756 123.213 6.92605 123.213 6.68303 123.213H5.46794C5.22492 123.213 4.9819 123.213 4.9819 123.092C4.86039 122.971 4.86039 122.849 4.86039 122.485V112.774H2.67322V112.895Z" fill="#34464F"/>
<path d="M15.4317 115.565H19.0769C19.32 115.565 19.563 115.565 19.563 115.687C19.6845 115.808 19.6845 115.929 19.6845 116.294V117.143C19.6845 117.386 19.6845 117.629 19.563 117.75C19.4415 117.872 19.32 117.872 19.0769 117.872H15.4317V121.271H19.1984C19.4415 121.271 19.6845 121.271 19.6845 121.392C19.806 121.513 19.806 121.635 19.806 121.999V122.849C19.806 123.092 19.806 123.334 19.6845 123.456C19.563 123.577 19.4415 123.577 19.1984 123.577H13.609C13.366 123.577 13.123 123.577 13.123 123.456C13.0015 123.334 13.0015 123.213 13.0015 122.849V111.802C13.0015 111.559 13.0015 111.317 13.123 111.195C13.2445 111.074 13.366 111.074 13.609 111.074H19.1984C19.4415 111.074 19.6845 111.074 19.6845 111.195C19.806 111.317 19.806 111.438 19.806 111.802V112.652C19.806 112.895 19.806 113.137 19.6845 113.137C19.563 113.259 19.4415 113.259 19.1984 113.259H15.4317V115.565Z" fill="#34464F"/>
<path d="M31.3495 115.566V111.438C31.3495 111.196 31.3495 110.953 31.471 110.831C31.5925 110.71 31.714 110.71 31.9571 110.71H33.0506C33.2937 110.71 33.5367 110.71 33.5367 110.831C33.6582 110.953 33.6582 111.074 33.6582 111.438V122.485C33.6582 122.728 33.6582 122.971 33.5367 122.971C33.4152 123.092 33.2937 123.092 33.0506 123.092H31.9571C31.714 123.092 31.471 123.092 31.471 122.971C31.3495 122.849 31.3495 122.728 31.3495 122.485V117.629H26.1246V122.485C26.1246 122.728 26.1246 122.971 26.0031 122.971C25.8816 123.092 25.7601 123.092 25.517 123.092H24.4235C24.1804 123.092 23.9374 123.092 23.9374 122.971C23.8159 122.849 23.8159 122.728 23.8159 122.485V111.438C23.8159 111.196 23.8159 110.953 23.9374 110.831C24.0589 110.71 24.1804 110.71 24.4235 110.71H25.517C25.7601 110.71 26.0031 110.71 26.0031 110.831C26.1246 110.953 26.1246 111.074 26.1246 111.438V115.566H31.3495Z" fill="#34464F"/>
<path d="M47.3887 111.438C47.3887 111.195 47.3887 110.953 47.5102 110.953C47.6317 110.831 47.7532 110.831 47.9963 110.831H49.0899C49.3329 110.831 49.5759 110.831 49.5759 110.953C49.6974 111.074 49.6974 111.195 49.6974 111.438V122.849C49.6974 123.092 49.6974 123.335 49.5759 123.335C49.4544 123.456 49.3329 123.456 49.0899 123.456H48.4823H48.2393C48.1178 123.456 48.1178 123.456 48.1178 123.456C48.1178 123.456 47.9963 123.456 47.9963 123.335C47.9963 123.335 47.8748 123.213 47.8748 123.092L40.5842 114.837V122.606C40.5842 122.849 40.5842 123.092 40.4627 123.092C40.3412 123.213 40.2197 123.213 39.9766 123.213H38.8831C38.64 123.213 38.397 123.213 38.397 123.092C38.2755 122.97 38.2755 122.849 38.2755 122.606V111.195C38.2755 110.953 38.2755 110.71 38.397 110.71C38.5185 110.588 38.64 110.588 38.8831 110.588H39.4906H39.7336H39.8551C39.8551 110.588 39.9766 110.588 39.9766 110.71C39.9766 110.71 40.0982 110.831 40.0982 110.953L47.3887 119.207V111.438Z" fill="#34464F"/>
<path d="M62.5774 110.952C63.4279 111.317 64.0355 111.802 64.643 112.288C65.2506 112.895 65.7366 113.502 66.1011 114.351C66.4657 115.08 66.5872 115.929 66.5872 116.901C66.5872 117.75 66.4657 118.6 66.1011 119.45C65.7366 120.3 65.2506 120.907 64.643 121.513C64.0355 122.12 63.3064 122.606 62.5774 122.849C61.7268 123.213 60.8762 123.334 60.0257 123.334C59.0536 123.334 58.203 123.213 57.3525 122.849C56.5019 122.485 55.8943 122.12 55.2868 121.513C54.6793 120.907 54.1932 120.3 53.8287 119.45C53.4642 118.721 53.3427 117.872 53.3427 116.901C53.3427 115.929 53.4642 115.08 53.8287 114.351C54.1932 113.623 54.6793 112.895 55.2868 112.288C55.8943 111.681 56.6234 111.195 57.3525 110.952C58.203 110.588 59.0536 110.467 59.9042 110.467C60.8762 110.467 61.8483 110.71 62.5774 110.952ZM58.446 113.016C57.96 113.259 57.474 113.502 57.1094 113.866C56.7449 114.23 56.3804 114.716 56.2589 115.201C56.0159 115.687 55.8943 116.294 55.8943 116.901C55.8943 117.508 56.0159 117.993 56.2589 118.6C56.5019 119.086 56.7449 119.571 57.1094 119.935C57.474 120.3 57.96 120.664 58.446 120.907C58.9321 121.149 59.5396 121.271 60.0257 121.271C60.6332 121.271 61.1193 121.149 61.6053 120.907C62.0913 120.664 62.5774 120.421 62.9419 119.935C63.3064 119.571 63.5494 119.086 63.7925 118.6C64.0355 118.115 64.157 117.508 64.157 116.901C64.157 116.294 64.0355 115.808 63.7925 115.201C63.5494 114.716 63.3064 114.23 62.9419 113.866C62.5774 113.502 62.0913 113.137 61.6053 113.016C61.1193 112.773 60.5117 112.652 60.0257 112.652C59.4181 112.652 58.9321 112.773 58.446 113.016Z" fill="#34464F"/>
<path d="M72.6627 122.485C72.6627 122.728 72.6627 122.971 72.5412 122.971C72.4197 123.092 72.2982 123.092 72.0551 123.092H70.9616C70.7185 123.092 70.4755 123.092 70.4755 122.971C70.354 122.849 70.354 122.728 70.354 122.485V111.438C70.354 111.196 70.354 110.953 70.4755 110.831C70.597 110.71 70.7185 110.71 70.9616 110.71H73.9993C74.8499 110.71 75.4574 110.831 75.9434 110.953C76.4295 111.074 76.9155 111.317 77.28 111.681C77.6446 112.045 78.0091 112.531 78.2521 113.016C78.4951 113.502 78.6166 114.109 78.6166 114.595C78.6166 115.808 78.2521 116.78 77.5231 117.508C76.794 118.236 75.8219 118.479 74.3638 118.479H72.7842V122.485H72.6627ZM73.6348 116.415C75.0929 116.415 75.9434 115.808 75.9434 114.595C75.9434 113.988 75.7004 113.502 75.3359 113.259C74.9714 113.016 74.3638 112.774 73.5132 112.774H72.6627V116.415H73.6348Z" fill="#34464F"/>
<path d="M90.2815 110.952C91.1321 111.317 91.7396 111.802 92.3472 112.288C92.9547 112.895 93.4408 113.502 93.8053 114.351C94.1698 115.08 94.2913 115.929 94.2913 116.901C94.2913 117.75 94.1698 118.6 93.8053 119.45C93.4408 120.3 92.9547 120.907 92.3472 121.513C91.7396 122.12 91.0106 122.606 90.2815 122.849C89.431 123.213 88.5804 123.334 87.7298 123.334C86.7578 123.334 85.9072 123.213 85.0566 122.849C84.2061 122.485 83.5985 122.12 82.991 121.513C82.3834 120.907 81.8974 120.3 81.5329 119.45C81.1683 118.721 81.0468 117.872 81.0468 116.901C81.0468 115.929 81.1683 115.08 81.5329 114.351C81.8974 113.623 82.3834 112.895 82.991 112.288C83.5985 111.681 84.3276 111.195 85.0566 110.952C85.9072 110.588 86.7578 110.467 87.6083 110.467C88.5804 110.467 89.5525 110.71 90.2815 110.952ZM86.1502 113.016C85.6642 113.259 85.1781 113.502 84.8136 113.866C84.4491 114.23 84.0846 114.716 83.963 115.201C83.72 115.687 83.5985 116.294 83.5985 116.901C83.5985 117.508 83.72 117.993 83.963 118.6C84.2061 119.086 84.4491 119.571 84.8136 119.935C85.1781 120.3 85.6642 120.664 86.1502 120.907C86.6363 121.149 87.2438 121.271 87.7298 121.271C88.3374 121.271 88.8234 121.149 89.3095 120.907C89.7955 120.664 90.2815 120.421 90.6461 119.935C91.0106 119.571 91.2536 119.086 91.4966 118.6C91.7397 118.115 91.8612 117.508 91.8612 116.901C91.8612 116.294 91.7397 115.808 91.4966 115.201C91.2536 114.716 91.0106 114.23 90.6461 113.866C90.2815 113.502 89.7955 113.137 89.3095 113.016C88.8234 112.773 88.2159 112.652 87.7298 112.652C87.1223 112.652 86.6363 112.773 86.1502 113.016Z" fill="#34464F"/>
<path d="M103.526 121.028C103.769 121.028 104.012 121.028 104.012 121.15C104.134 121.271 104.134 121.392 104.134 121.757V122.606C104.134 122.849 104.134 123.092 104.012 123.213C103.891 123.335 103.769 123.335 103.526 123.335H98.5442C98.3012 123.335 98.0582 123.335 98.0582 123.213C97.9366 123.092 97.9366 122.97 97.9366 122.606V111.56C97.9366 111.317 97.9366 111.074 98.0582 111.074C98.1797 110.953 98.3012 110.953 98.5442 110.953H99.7593C100.002 110.953 100.245 110.953 100.245 111.074C100.367 111.195 100.367 111.317 100.367 111.56V121.271H103.526V121.028Z" fill="#34464F"/>
<path d="M109.602 122.485C109.602 122.728 109.602 122.971 109.48 122.971C109.359 123.092 109.237 123.092 108.994 123.092H107.9C107.657 123.092 107.414 123.092 107.414 122.971C107.293 122.849 107.293 122.728 107.293 122.485V111.317C107.293 111.074 107.293 110.831 107.414 110.831C107.536 110.71 107.657 110.71 107.9 110.71H108.994C109.237 110.71 109.48 110.71 109.48 110.831C109.602 110.953 109.602 111.074 109.602 111.317V122.485Z" fill="#34464F"/>
<path d="M120.294 113.016C120.173 113.137 120.051 113.259 120.051 113.259C120.051 113.259 119.93 113.259 119.808 113.259H119.687C119.687 113.259 119.687 113.259 119.565 113.259L119.444 113.137C119.444 113.137 119.322 113.016 119.201 112.895C119.079 112.773 118.836 112.652 118.593 112.53C118.35 112.409 118.107 112.409 117.864 112.409C117.378 112.409 117.014 112.53 116.649 112.773C116.285 113.016 116.163 113.38 116.163 113.744C116.163 114.109 116.285 114.351 116.528 114.594C116.771 114.837 117.257 115.08 117.986 115.322C118.715 115.565 119.201 115.808 119.687 116.051C120.173 116.294 120.537 116.536 120.78 116.901C121.023 117.143 121.266 117.508 121.388 117.872C121.509 118.236 121.509 118.721 121.509 119.207C121.509 119.814 121.388 120.3 121.145 120.907C120.902 121.392 120.659 121.878 120.294 122.242C119.93 122.606 119.444 122.849 118.958 123.092C118.472 123.334 117.864 123.334 117.257 123.334C116.528 123.334 115.799 123.213 115.069 122.849C114.462 122.606 113.854 122.12 113.368 121.635C113.247 121.513 113.125 121.392 113.125 121.271C113.125 121.149 113.004 121.149 113.004 121.028C113.004 120.907 113.004 120.907 113.004 120.785C113.004 120.785 113.125 120.664 113.247 120.542L113.854 119.935C113.976 119.814 114.097 119.693 114.097 119.693H114.219H114.34C114.34 119.693 114.34 119.693 114.462 119.693C114.462 119.693 114.583 119.814 114.705 119.935C114.826 120.057 114.948 120.178 115.069 120.3C115.191 120.542 115.555 120.664 115.92 120.785C116.285 120.907 116.649 121.028 117.014 121.028C117.5 121.028 117.986 120.907 118.35 120.542C118.715 120.178 118.836 119.814 118.836 119.328C118.836 118.843 118.593 118.357 118.107 117.993C117.986 117.872 117.743 117.872 117.5 117.75C117.257 117.629 116.892 117.508 116.406 117.265C115.799 117.022 115.312 116.901 114.948 116.658C114.583 116.415 114.219 116.172 113.976 115.929C113.733 115.687 113.611 115.322 113.49 115.08C113.368 114.716 113.368 114.351 113.368 113.987C113.368 113.502 113.49 113.016 113.611 112.53C113.854 112.045 114.097 111.681 114.462 111.438C114.826 111.074 115.191 110.831 115.677 110.71C116.163 110.588 116.649 110.467 117.257 110.467C117.743 110.467 118.229 110.588 118.836 110.71C119.322 110.831 119.808 111.074 120.294 111.317C120.537 111.438 120.659 111.559 120.659 111.681C120.659 111.802 120.78 111.802 120.78 111.924C120.78 112.045 120.78 112.045 120.659 112.166C120.537 112.288 120.537 112.288 120.537 112.288L120.294 113.016Z" fill="#34464F"/>
<path d="M54.3147 132.682C54.1932 132.803 54.0717 132.925 54.0717 132.925C54.0717 132.925 53.9502 132.925 53.8287 132.925H53.7072C53.7072 132.925 53.7072 132.925 53.5857 132.925L53.4642 132.803C53.4642 132.803 53.3427 132.682 53.2212 132.56C53.0996 132.439 52.8566 132.318 52.6136 132.196C52.3706 132.075 52.1276 132.075 51.8845 132.075C51.3985 132.075 51.034 132.196 50.6695 132.439C50.3049 132.682 50.1834 133.046 50.1834 133.41C50.1834 133.774 50.3049 134.017 50.5479 134.26C50.791 134.503 51.277 134.746 52.0061 134.988C52.7351 135.231 53.2212 135.474 53.7072 135.717C54.1932 135.959 54.5578 136.202 54.8008 136.566C55.0438 136.809 55.2868 137.173 55.4083 137.538C55.5298 137.902 55.5298 138.387 55.5298 138.873C55.5298 139.48 55.4083 139.965 55.1653 140.451C54.9223 140.937 54.6793 141.422 54.3147 141.786C53.9502 142.15 53.4642 142.393 52.9781 142.636C52.4921 142.879 51.8845 142.879 51.277 142.879C50.5479 142.879 49.8189 142.757 49.0898 142.393C48.4823 142.15 47.8747 141.665 47.3887 141.179C47.2672 141.058 47.1457 140.937 47.1457 140.815C47.1457 140.694 47.0242 140.694 47.0242 140.572C47.0242 140.451 47.0242 140.451 47.0242 140.33C47.0242 140.33 47.1457 140.208 47.2672 140.087L47.8747 139.48C47.9962 139.358 48.1178 139.237 48.1178 139.237H48.2393H48.6038C48.6038 139.237 48.6038 139.237 48.7253 139.237C48.7253 139.237 48.8468 139.358 48.9683 139.48C49.0898 139.601 49.2113 139.723 49.3328 139.844C49.4544 140.087 49.8189 140.208 50.1834 140.33C50.5479 140.451 50.9125 140.572 51.277 140.572C51.763 140.572 52.2491 140.451 52.6136 140.087C52.9781 139.723 53.0996 139.358 53.0996 138.873C53.0996 138.387 52.8566 137.902 52.3706 137.538C52.2491 137.416 52.0061 137.416 51.763 137.295C51.52 137.173 51.1555 137.052 50.6695 136.809C50.0619 136.566 49.5759 136.324 49.2113 136.202C48.8468 135.959 48.4823 135.717 48.2393 135.474C47.9962 135.231 47.8747 134.867 47.7532 134.624C47.6317 134.26 47.6317 133.896 47.6317 133.532C47.6317 133.046 47.7532 132.56 47.8747 132.075C48.1178 131.589 48.3608 131.225 48.7253 130.982C49.0898 130.618 49.4544 130.375 49.9404 130.254C50.4264 130.133 50.9125 130.011 51.52 130.011C52.0061 130.011 52.4921 130.133 53.0996 130.254C53.5857 130.375 54.0717 130.618 54.5578 130.861C54.8008 130.982 54.9223 131.104 54.9223 131.225C55.0438 131.347 55.0438 131.347 55.0438 131.468C55.0438 131.589 55.0438 131.589 54.9223 131.711C54.8008 131.832 54.8008 131.832 54.8008 131.832L54.3147 132.682Z" fill="#34464F"/>
<path d="M61.2408 140.086L60.2687 142.272C60.2687 142.393 60.1472 142.514 60.1472 142.514C60.1472 142.636 60.0257 142.636 60.0257 142.636H59.9041C59.7826 142.636 59.7826 142.636 59.5396 142.636H58.3245C58.0815 142.636 57.96 142.636 57.8385 142.514C57.717 142.514 57.717 142.393 57.717 142.272V142.15C57.717 142.15 57.717 142.029 57.8385 141.907L62.6989 130.497C62.6989 130.497 62.6989 130.375 62.8204 130.375C62.9419 130.254 62.9419 130.132 62.9419 130.132C63.0634 130.132 63.1849 130.132 63.4279 130.132H64.157C64.4 130.132 64.5215 130.132 64.643 130.132C64.7645 130.132 64.7645 130.254 64.886 130.375V130.497C64.886 130.497 64.886 130.497 64.886 130.618L69.6249 142.029C69.7464 142.272 69.7464 142.393 69.7464 142.393C69.7464 142.514 69.7464 142.636 69.6249 142.636C69.5034 142.636 69.3819 142.757 69.1389 142.757H67.9238C67.8023 142.757 67.6808 142.757 67.6808 142.757C67.5592 142.757 67.5592 142.757 67.5592 142.757L67.4377 142.636C67.4377 142.514 67.3162 142.514 67.3162 142.393L66.4657 140.208H61.2408V140.086ZM63.7925 133.774L61.9698 138.266H65.6151L63.7925 133.774Z" fill="#34464F"/>
<path d="M83.1125 130.618C83.1125 130.497 83.234 130.375 83.234 130.375L83.3555 130.254H83.477H83.72H84.3276C84.4491 130.254 84.5706 130.254 84.6921 130.254C84.8136 130.254 84.8136 130.254 84.8136 130.375L84.9351 130.497C84.9351 130.618 84.9351 130.618 85.0566 130.861L86.8793 142.15C86.8793 142.272 86.8793 142.272 86.8793 142.393V142.514C86.8793 142.636 86.8793 142.757 86.7578 142.757C86.6363 142.757 86.5147 142.879 86.2717 142.879H85.1781C84.9351 142.879 84.6921 142.879 84.6921 142.757C84.5706 142.757 84.5706 142.514 84.5706 142.272L83.5985 135.231L80.4393 142.514L80.3178 142.636C80.1962 142.879 80.0747 143 79.8317 143C79.7102 143 79.5887 143 79.4672 143C79.3457 143 79.3457 142.879 79.2242 142.757C79.2242 142.757 79.2242 142.757 79.2242 142.636C79.2242 142.636 79.2242 142.636 79.2242 142.514L76.0649 135.231L74.9713 142.272V142.393C74.9713 142.393 74.9713 142.393 74.9713 142.514C74.9713 142.636 74.8498 142.757 74.8498 142.879C74.7283 142.879 74.6068 143 74.3638 143H73.2702C73.0272 143 72.9057 143 72.7842 142.879C72.6627 142.879 72.6627 142.757 72.6627 142.636V142.514C72.6627 142.514 72.6627 142.393 72.6627 142.272L74.7283 130.982C74.7283 130.861 74.7283 130.739 74.8498 130.618C74.8498 130.497 74.8498 130.497 74.9713 130.497C74.9713 130.497 75.0929 130.497 75.2144 130.375C75.3359 130.375 75.4574 130.375 75.5789 130.375H76.1864C76.4295 130.375 76.551 130.375 76.6725 130.375C76.794 130.375 76.794 130.497 76.9155 130.618C76.9155 130.618 76.9155 130.618 76.9155 130.739C76.9155 130.739 76.9155 130.739 76.9155 130.861L80.0747 138.509L83.1125 130.618Z" fill="#34464F"/>
<path d="M98.9087 130.618C99.7592 130.982 100.367 131.468 100.974 131.953C101.582 132.56 102.068 133.167 102.432 134.017C102.797 134.745 102.918 135.595 102.918 136.566C102.918 137.416 102.797 138.266 102.432 139.115C102.068 139.965 101.582 140.572 100.974 141.179C100.367 141.786 99.6377 142.272 98.9087 142.514C98.0581 142.879 97.2075 143 96.357 143C95.3849 143 94.5343 142.879 93.6838 142.514C92.8332 142.15 92.2256 141.786 91.6181 141.179C91.0106 140.572 90.5245 139.965 90.16 139.115C89.7955 138.387 89.674 137.537 89.674 136.566C89.674 135.595 89.7955 134.745 90.16 134.017C90.5245 133.289 91.0106 132.56 91.6181 131.953C92.2256 131.346 92.9547 130.861 93.6838 130.618C94.5343 130.254 95.3849 130.132 96.2355 130.132C97.329 130.132 98.1796 130.254 98.9087 130.618ZM94.7773 132.682C94.2913 132.924 93.8053 133.167 93.4407 133.531C93.0762 133.895 92.7117 134.381 92.5902 134.867C92.3472 135.352 92.2256 135.959 92.2256 136.566C92.2256 137.173 92.3472 137.659 92.5902 138.266C92.8332 138.751 93.0762 139.237 93.4407 139.601C93.8053 139.965 94.2913 140.329 94.7773 140.572C95.2634 140.815 95.8709 140.936 96.357 140.936C96.9645 140.936 97.4506 140.815 97.9366 140.572C98.4226 140.329 98.9087 140.086 99.2732 139.601C99.6377 139.237 99.8807 138.751 100.124 138.266C100.367 137.78 100.488 137.173 100.488 136.566C100.488 135.959 100.367 135.474 100.124 134.867C99.8807 134.381 99.6377 133.895 99.2732 133.531C98.9087 133.167 98.4226 132.803 97.9366 132.682C97.4506 132.439 96.843 132.317 96.357 132.317C95.7494 132.317 95.2634 132.439 94.7773 132.682Z" fill="#34464F"/>
<path d="M109.723 130.375C111.181 130.375 112.153 130.618 112.761 131.103C113.125 131.346 113.368 131.71 113.611 132.196C113.854 132.681 113.854 133.167 113.854 133.653C113.854 134.26 113.733 134.745 113.49 135.109C113.247 135.473 112.882 135.838 112.396 136.08C113.247 136.202 113.854 136.566 114.219 137.173C114.583 137.659 114.826 138.387 114.826 139.237C114.826 140.329 114.462 141.179 113.733 141.786C113.004 142.393 111.91 142.757 110.695 142.757H107.171C106.928 142.757 106.685 142.757 106.685 142.636C106.564 142.514 106.564 142.393 106.564 142.15V130.982C106.564 130.739 106.564 130.496 106.685 130.496C106.807 130.375 106.928 130.375 107.171 130.375H109.723ZM109.723 135.473C110.938 135.473 111.546 134.988 111.546 133.895C111.546 132.803 110.938 132.317 109.723 132.317H108.994V135.473H109.723ZM110.088 140.815C111.667 140.815 112.518 140.208 112.518 139.115C112.518 138.508 112.275 138.023 111.91 137.78C111.546 137.537 110.817 137.416 109.966 137.416H108.994V140.815H110.088Z" fill="#34464F"/>
<path d="M127.099 130.618C127.949 130.982 128.557 131.468 129.165 131.953C129.772 132.56 130.258 133.167 130.623 134.017C130.987 134.745 131.109 135.595 131.109 136.566C131.109 137.416 130.987 138.266 130.623 139.115C130.258 139.965 129.772 140.572 129.165 141.179C128.557 141.786 127.828 142.272 127.099 142.514C126.248 142.879 125.398 143 124.547 143C123.575 143 122.725 142.879 121.874 142.514C121.023 142.15 120.416 141.786 119.808 141.179C119.201 140.572 118.715 139.965 118.35 139.115C117.986 138.387 117.864 137.537 117.864 136.566C117.864 135.595 117.986 134.745 118.35 134.017C118.715 133.289 119.201 132.56 119.808 131.953C120.416 131.346 121.145 130.861 121.874 130.618C122.725 130.254 123.575 130.132 124.426 130.132C125.398 130.132 126.248 130.254 127.099 130.618ZM122.846 132.682C122.36 132.924 121.874 133.167 121.509 133.531C121.145 133.895 120.78 134.381 120.659 134.867C120.416 135.352 120.294 135.959 120.294 136.566C120.294 137.173 120.416 137.659 120.659 138.266C120.902 138.751 121.145 139.237 121.509 139.601C121.874 139.965 122.36 140.329 122.846 140.572C123.332 140.815 123.94 140.936 124.426 140.936C125.033 140.936 125.519 140.815 126.005 140.572C126.491 140.329 126.977 140.086 127.342 139.601C127.706 139.237 127.949 138.751 128.192 138.266C128.435 137.78 128.557 137.173 128.557 136.566C128.557 135.959 128.435 135.474 128.192 134.867C127.949 134.381 127.706 133.895 127.342 133.531C126.977 133.167 126.491 132.803 126.005 132.682C125.519 132.439 124.912 132.317 124.426 132.317C123.818 132.317 123.332 132.439 122.846 132.682Z" fill="#34464F"/>
<path d="M143.138 141.907C143.26 142.029 143.26 142.15 143.381 142.15V142.272C143.381 142.393 143.381 142.514 143.26 142.514C143.138 142.514 143.017 142.636 142.774 142.636H141.315C141.072 142.636 140.951 142.636 140.829 142.636C140.829 142.636 140.708 142.514 140.586 142.393C140.586 142.393 140.586 142.393 140.586 142.272C140.586 142.272 140.586 142.272 140.586 142.15L137.549 137.537H137.184V141.907C137.184 142.15 137.184 142.393 137.063 142.393C136.941 142.514 136.82 142.514 136.577 142.514H135.362C135.118 142.514 134.875 142.514 134.875 142.393C134.754 142.272 134.754 142.15 134.754 141.907V130.739C134.754 130.497 134.754 130.254 134.875 130.254C134.997 130.132 135.118 130.132 135.362 130.132H138.278C139.736 130.132 140.708 130.497 141.559 131.103C142.288 131.71 142.652 132.682 142.652 133.774C142.652 134.745 142.409 135.474 141.923 136.081C141.437 136.688 140.708 137.052 139.857 137.294L143.138 141.907ZM137.792 136.081C139.371 136.081 140.1 135.474 140.1 134.138C140.1 133.531 139.857 133.046 139.493 132.803C139.128 132.439 138.521 132.317 137.792 132.317H137.063V136.081H137.792Z" fill="#34464F"/>
<path d="M45.08 63.8523V17.9661L3.40226 23.0646V57.2972L32.443 60.8175V64.3379L0 60.332V20.0298L48.4823 14.0815V64.3379L45.08 63.8523Z" fill="#84B140"/>
<path d="M29.0408 63.8523V9.83277L108.872 0V66.0374L105.47 66.4015V3.88455L32.443 12.7462V64.3379L29.0408 63.8523Z" fill="#B0C0C9"/>
<path d="M83.963 65.1874V9.22559L130.38 14.931V63.7307L126.977 63.3665V17.9658L87.3652 13.1101V69.0719L45.08 63.8521V60.4531L83.963 65.1874Z" fill="#F05125"/>
<path d="M161 67.4941V14.0815L113.125 20.0298V62.0315L105.47 63.0026V66.4016L116.528 65.0663V23.0646L157.598 17.9661V63.6096L126.977 59.9678V63.3668L161 67.4941Z" fill="#991E21"/>
</svg>
